<svg width="19" height="14" viewBox="0 0 19 14" fill="none" xmlns="http://www.w3.org/2000/svg">
<path fill-rule="evenodd" clip-rule="evenodd" d="M7.33194 0.444655C7.02765 0.638781 7.01186 0.812303 7.16852 2.2381C7.22673 2.76776 7.36404 4.05134 7.47366 5.0905L7.67299 6.97985L7.58944 7.14835C7.47837 7.37231 7.3262 7.4842 7.0993 7.50874C6.86795 7.53374 6.6476 7.41844 6.53165 7.21178C6.44493 7.0572 6.44412 7.05071 6.1213 3.98496C5.91345 2.01137 5.92517 2.08671 5.83199 2.12411C5.66639 2.19062 5.05024 2.6939 4.66034 3.08116C3.97978 3.7572 3.46841 4.47624 3.045 5.35262C2.37787 6.73345 2.09713 8.08902 2.13381 9.75185L2.13997 10.0318H9.5021H16.8642L16.8682 9.72945C16.8913 7.99863 16.6301 6.74133 15.9592 5.35262C15.4013 4.19777 14.5326 3.12121 13.5834 2.40813C13.1523 2.08429 13.1074 2.06579 13.0792 2.20043C13.0671 2.25812 12.9497 3.34333 12.8182 4.61204C12.6824 5.92322 12.5511 7.00072 12.514 7.10858C12.4237 7.37155 12.2394 7.50109 11.9557 7.50109C11.6935 7.50109 11.5401 7.40107 11.4148 7.1484L11.3312 6.97998L11.5518 4.88899C11.6731 3.73892 11.8105 2.45534 11.857 2.03654C11.9907 0.834833 11.9672 0.632869 11.6723 0.444655C11.5414 0.361164 11.4433 0.357178 9.5021 0.357178C7.56093 0.357178 7.46275 0.361164 7.33194 0.444655ZM1.50816 11.3905C0.84685 11.6415 0.68758 12.5379 1.21774 13.025C1.30647 13.1065 1.42627 13.192 1.48406 13.215C1.62552 13.2712 17.3787 13.2712 17.5201 13.215C17.6911 13.1469 17.942 12.89 18.0257 12.6973C18.1258 12.4668 18.1252 12.1196 18.0245 11.8875C17.9296 11.6688 17.6904 11.452 17.4668 11.3819C17.2285 11.3071 1.70565 11.3156 1.50816 11.3905Z" fill="white"/>
</svg>
