<svg width="13" height="16" viewBox="0 0 13 16" fill="none" xmlns="http://www.w3.org/2000/svg">
<path fill-rule="evenodd" clip-rule="evenodd" d="M6.29923 0.140227C5.30489 0.266521 4.50481 0.618199 3.78307 1.24631C3.33266 1.63827 3.01651 2.06021 2.71894 2.66661C2.36556 3.38665 2.27034 3.89545 2.27034 5.0636V5.87973L1.76256 5.87986C1.16935 5.88 1.06893 5.91406 1.0073 6.13605C0.960813 6.30343 0.959348 14.0588 1.00573 14.3796C1.07099 14.831 1.38808 15.2438 1.79596 15.4085L1.98731 15.4858H6.73208H11.4769L11.6682 15.4085C12.0761 15.2438 12.3932 14.831 12.4584 14.3796C12.5048 14.0588 12.5034 6.30343 12.4569 6.13605C12.3952 5.91406 12.2948 5.88 11.7016 5.87986L11.1938 5.87973V5.0636C11.1938 4.18074 11.1584 3.8484 11.0088 3.32561C10.9164 3.003 10.6361 2.40579 10.4385 2.11069C9.78452 1.1341 8.77094 0.452582 7.62224 0.217075C7.29207 0.149416 6.5613 0.106963 6.29923 0.140227ZM7.2579 2.1021C7.63828 2.17841 8.13623 2.4346 8.42641 2.70323C8.70687 2.96291 8.85588 3.16006 9.01493 3.48187C9.22993 3.91696 9.26665 4.12936 9.287 5.05564L9.30508 5.87973H6.73208H4.15909L4.17717 5.05564C4.19212 4.37476 4.20697 4.18736 4.26267 3.97729C4.45846 3.23868 4.93523 2.65246 5.61042 2.32016C5.79828 2.22769 6.0536 2.13153 6.18269 2.10463C6.49315 2.03993 6.94268 2.03887 7.2579 2.1021ZM7.18998 8.55042C7.54645 8.68184 7.86014 9.03292 7.96293 9.4154C8.07107 9.81799 7.93799 10.3116 7.63932 10.6159L7.48435 10.7737L7.59014 11.7065C7.65753 12.3006 7.68553 12.6664 7.66732 12.714C7.6516 12.7551 7.60549 12.8187 7.56483 12.8554C7.49547 12.9179 7.44406 12.922 6.73208 12.922C6.0201 12.922 5.96869 12.9179 5.89933 12.8554C5.85868 12.8187 5.81256 12.7551 5.79685 12.714C5.77863 12.6664 5.80664 12.3006 5.87403 11.7065L5.97981 10.7737L5.82485 10.6159C5.52618 10.3116 5.39309 9.81799 5.50124 9.4154C5.69909 8.67901 6.46904 8.28465 7.18998 8.55042Z" fill="white"/>
</svg>
