<svg width="19" height="13" viewBox="0 0 19 13" fill="none" xmlns="http://www.w3.org/2000/svg">
<path fill-rule="evenodd" clip-rule="evenodd" d="M4.53615 0.399612C4.34798 0.466162 4.20916 0.621419 4.1524 0.828682C4.12613 0.92468 4.11574 2.93274 4.12267 6.58936L4.1333 12.2027L4.22785 12.3547C4.41493 12.6557 4.82769 12.7355 5.10456 12.5243C5.37942 12.3147 5.36198 12.7226 5.36198 6.50243C5.36198 0.30438 5.37773 0.686921 5.11447 0.490212C4.93919 0.359247 4.7389 0.327866 4.53615 0.399612ZM14.2246 0.367828C14.0734 0.395826 13.8607 0.573964 13.7973 0.725635C13.7502 0.838351 13.7412 1.76896 13.7412 6.50243C13.7412 12.7226 13.7237 12.3147 13.9986 12.5243C14.2754 12.7355 14.6882 12.6557 14.8753 12.3547L14.9698 12.2027V6.50243V0.802175L14.8753 0.650142C14.7404 0.43325 14.4804 0.320413 14.2246 0.367828ZM2.53244 2.23248C2.44208 2.28158 2.34938 2.37786 2.3008 2.47309C2.22132 2.62896 2.21979 2.70433 2.21979 6.50243C2.21979 10.3021 2.22128 10.3759 2.30088 10.5319C2.40957 10.7449 2.64922 10.8697 2.89616 10.8419C3.10492 10.8183 3.25526 10.7179 3.3679 10.5266C3.44697 10.3924 3.44847 10.3175 3.44847 6.50243C3.44847 2.68741 3.44697 2.61244 3.3679 2.47821C3.25059 2.27904 3.09968 2.18289 2.87739 2.16568C2.73656 2.15481 2.64161 2.17318 2.53244 2.23248ZM6.42952 2.20859C6.26121 2.2834 6.14281 2.4256 6.09117 2.61498C6.02969 2.84053 6.02969 10.1643 6.09117 10.3899C6.14394 10.5834 6.26282 10.7232 6.4383 10.7979C6.73097 10.9226 7.07665 10.7966 7.21265 10.5157C7.29467 10.3463 7.29563 10.2993 7.29563 6.50243C7.29563 2.70554 7.29467 2.65856 7.21265 2.48913C7.07661 2.2081 6.71888 2.07996 6.42952 2.20859ZM12.1419 2.2355C12.0211 2.29528 11.9491 2.36803 11.8901 2.48989C11.8086 2.65832 11.8075 2.71118 11.8075 6.50243C11.8075 10.2993 11.8085 10.3463 11.8905 10.5157C12.0265 10.7966 12.3722 10.9226 12.6648 10.7979C12.8403 10.7232 12.9592 10.5834 13.012 10.3899C13.0734 10.1643 13.0734 2.84053 13.012 2.61498C12.9592 2.42145 12.8403 2.2817 12.6648 2.20694C12.4843 2.12999 12.339 2.13793 12.1419 2.2355ZM15.9979 2.22228C15.8094 2.31695 15.6854 2.51451 15.6551 2.76806C15.6414 2.88327 15.6357 4.64531 15.6424 6.68371C15.6544 10.3059 15.6565 10.393 15.7352 10.5266C15.8479 10.7179 15.9982 10.8183 16.207 10.8419C16.4539 10.8697 16.6936 10.7449 16.8022 10.5319C16.8819 10.3759 16.8833 10.3021 16.8833 6.50243C16.8833 2.7028 16.8819 2.629 16.8022 2.47293C16.6573 2.18889 16.2913 2.07484 15.9979 2.22228ZM10.2204 3.20982C9.89717 3.39517 9.91413 3.21288 9.91413 6.50243C9.91413 9.27034 9.91807 9.43172 9.98881 9.56469C10.0796 9.73526 10.3272 9.885 10.5184 9.885C10.7096 9.885 10.9572 9.73526 11.048 9.56469C11.1187 9.43172 11.1227 9.27034 11.1227 6.50243C11.1227 3.73452 11.1187 3.57314 11.048 3.44016C10.9572 3.2696 10.7096 3.11986 10.5184 3.11986C10.4408 3.11986 10.3068 3.16035 10.2204 3.20982ZM0.568084 4.05515C0.495088 4.10502 0.401749 4.20895 0.36074 4.28614C0.290886 4.41755 0.286133 4.55939 0.286133 6.50243C0.286133 8.44547 0.290886 8.58731 0.36074 8.71872C0.471522 8.92719 0.661302 9.04035 0.90023 9.04035C1.14053 9.04035 1.30666 8.9514 1.42695 8.75836C1.51433 8.61813 1.51481 8.60588 1.51481 6.50243C1.51481 4.39898 1.51433 4.38673 1.42695 4.2465C1.30666 4.05346 1.14053 3.96451 0.90023 3.96451C0.759717 3.96451 0.661705 3.99126 0.568084 4.05515ZM17.8745 4.04193C17.8104 4.08419 17.7198 4.17906 17.6731 4.25274C17.5897 4.38451 17.5883 4.42077 17.5883 6.50203C17.5883 8.60592 17.5888 8.61813 17.6762 8.75836C17.9257 9.15879 18.5203 9.13667 18.7424 8.71872C18.8122 8.58731 18.817 8.44547 18.817 6.50243C18.817 4.55939 18.8122 4.41755 18.7424 4.28614C18.5809 3.98227 18.1493 3.86081 17.8745 4.04193ZM8.27217 4.16573C8.19994 4.20976 8.10487 4.30483 8.06084 4.37706C7.98377 4.50339 7.98075 4.58356 7.98075 6.50243C7.98075 8.4213 7.98377 8.50147 8.06084 8.6278C8.29807 9.01691 8.8714 9.01691 9.10864 8.6278C9.1857 8.50147 9.18872 8.4213 9.18872 6.50243C9.18872 4.58356 9.1857 4.50339 9.10864 4.37706C8.93779 4.09684 8.54707 3.9981 8.27217 4.16573Z" fill="white"/>
</svg>
