<svg width="12" height="12" viewBox="0 0 12 12" xmlns="http://www.w3.org/2000/svg">
<path fill-rule="evenodd" clip-rule="evenodd" d="M10.1058 1.87891C9.11906 0.891045 7.80682 0.346771 6.40883 0.346191C3.52813 0.346191 1.18367 2.69059 1.18251 5.57206C1.18212 6.49318 1.42275 7.39234 1.88012 8.1849L1.13867 10.8931L3.90922 10.1663C4.67262 10.5827 5.53207 10.8022 6.4067 10.8024H6.40889C9.28926 10.8024 11.634 8.45784 11.6351 5.57624C11.6357 4.17974 11.0925 2.86672 10.1058 1.87891ZM6.40883 9.91982H6.40702C5.6276 9.9195 4.86317 9.71003 4.19613 9.31432L4.03758 9.22015L2.3935 9.65145L2.83233 8.04849L2.72901 7.88415C2.29417 7.19252 2.06455 6.39314 2.06494 5.57238C2.06584 3.17738 4.01454 1.22887 6.41056 1.22887C7.57082 1.22926 8.6615 1.68167 9.48161 2.50275C10.3017 3.32383 10.7531 4.41521 10.7527 5.57592C10.7517 7.97112 8.80312 9.91982 6.40883 9.91982ZM8.79153 6.66647C8.66098 6.60106 8.01892 6.28525 7.89919 6.2416C7.77959 6.19802 7.69242 6.17633 7.60546 6.30701C7.51836 6.43769 7.26814 6.73187 7.19192 6.81897C7.11571 6.90613 7.03962 6.91707 6.909 6.85167C6.77839 6.78633 6.35765 6.64838 5.85882 6.2035C5.47065 5.85723 5.20859 5.4296 5.13237 5.29893C5.05628 5.16812 5.13173 5.10426 5.18967 5.03242C5.33103 4.85688 5.47259 4.67283 5.5161 4.58574C5.55968 4.49858 5.53786 4.42229 5.50516 4.35696C5.47259 4.29162 5.21142 3.64885 5.10263 3.3873C4.99655 3.13277 4.88898 3.16715 4.80877 3.16316C4.73268 3.15936 4.64559 3.15859 4.55849 3.15859C4.47146 3.15859 4.32996 3.19122 4.21023 3.32203C4.09056 3.45277 3.75325 3.76865 3.75325 4.41141C3.75325 5.05418 4.22117 5.67512 4.28645 5.76228C4.35172 5.84944 5.2073 7.16845 6.51723 7.73403C6.8288 7.8687 7.072 7.94897 7.2617 8.00916C7.57456 8.10855 7.85915 8.09452 8.0842 8.06092C8.33512 8.02339 8.85674 7.74497 8.96566 7.43997C9.07445 7.13491 9.07445 6.87349 9.04175 6.81897C9.00917 6.76451 8.92208 6.73187 8.79153 6.66647Z" fill="white"/>
</svg>
